<svg 
 xmlns="http://www.w3.org/2000/svg"
 xmlns:xlink="http://www.w3.org/1999/xlink"
 width="24px" height="24px">
<path fill-rule="evenodd"  fill-opacity="0" opacity="0" fill="rgb(119, 119, 119)"
 d="M-0.000,-0.000 L24.000,-0.000 L24.000,24.000 L-0.000,24.000 L-0.000,-0.000 Z"/>
<path fill-rule="evenodd"  fill="rgb(119, 119, 119)"
 d="M22.312,19.286 L18.875,19.286 L18.875,21.321 C18.875,21.696 18.567,22.000 18.187,22.000 L5.812,22.000 C5.433,22.000 5.125,21.696 5.125,21.321 L5.125,19.286 L1.687,19.286 C1.308,19.286 1.000,18.982 1.000,18.607 L1.000,6.393 C1.000,6.018 1.308,5.714 1.687,5.714 L5.125,5.714 L5.125,3.679 C5.125,3.304 5.433,3.000 5.812,3.000 L18.187,3.000 C18.567,3.000 18.875,3.304 18.875,3.679 L18.875,5.714 L22.312,5.714 C22.692,5.714 23.000,6.018 23.000,6.393 L23.000,18.607 C23.000,18.982 22.692,19.286 22.312,19.286 ZM5.125,7.071 L2.375,7.071 L2.375,17.928 L5.125,17.928 L5.125,7.071 ZM17.500,4.357 L6.500,4.357 L6.500,20.643 L17.500,20.643 L17.500,4.357 ZM21.625,7.071 L18.875,7.071 L18.875,17.928 L21.625,17.928 L21.625,7.071 ZM10.625,13.857 C11.132,13.857 11.596,13.962 12.000,14.131 L12.000,7.750 C12.000,7.548 12.092,7.356 12.249,7.227 C12.406,7.099 12.613,7.044 12.815,7.084 C13.959,7.295 16.125,8.257 16.125,10.379 C16.125,10.753 15.817,11.057 15.437,11.057 C15.058,11.057 14.750,10.753 14.750,10.379 C14.750,9.472 13.998,8.955 13.375,8.681 L13.375,15.893 C13.375,17.034 12.168,17.928 10.625,17.928 C9.082,17.928 7.875,17.034 7.875,15.893 C7.875,14.751 9.082,13.857 10.625,13.857 ZM10.625,16.571 C11.464,16.571 12.000,16.170 12.000,15.893 C12.000,15.616 11.464,15.214 10.625,15.214 C9.786,15.214 9.250,15.616 9.250,15.893 C9.250,16.170 9.786,16.571 10.625,16.571 Z"/>
</svg>