<svg 
 xmlns="http://www.w3.org/2000/svg"
 xmlns:xlink="http://www.w3.org/1999/xlink"
 width="24px" height="24px">
<path fill-rule="evenodd"  fill-opacity="0" opacity="0" fill="rgb(119, 119, 119)"
 d="M-0.000,-0.000 L24.000,-0.000 L24.000,24.000 L-0.000,24.000 L-0.000,-0.000 Z"/>
<path fill-rule="evenodd"  fill="rgb(119, 119, 119)"
 d="M11.200,18.130 L11.200,20.750 L9.250,20.750 C8.891,20.750 8.600,21.031 8.600,21.375 C8.600,21.719 8.891,22.000 9.250,22.000 L15.750,22.000 C16.108,22.000 16.400,21.719 16.400,21.375 C16.400,21.031 16.108,20.750 15.750,20.750 L13.800,20.750 L13.800,18.123 C16.508,17.608 19.000,15.501 19.000,12.000 L19.000,10.125 C19.000,9.780 18.708,9.500 18.350,9.500 C17.992,9.500 17.700,9.780 17.700,10.125 L17.700,12.000 C17.700,15.282 15.082,17.000 12.500,17.000 C9.995,17.000 7.300,15.435 7.300,12.000 L7.300,10.125 C7.300,9.780 7.009,9.500 6.650,9.500 C6.291,9.500 6.000,9.780 6.000,10.125 L6.000,12.000 C6.000,15.550 8.448,17.632 11.200,18.130 ZM12.500,15.750 C14.651,15.750 16.400,14.068 16.400,12.000 L16.400,5.750 C16.400,3.683 14.651,2.000 12.500,2.000 C10.350,2.000 8.600,3.683 8.600,5.750 L8.600,12.000 C8.600,14.068 10.350,15.750 12.500,15.750 ZM9.900,5.750 C9.900,4.369 11.063,3.250 12.500,3.250 C13.937,3.250 15.100,4.369 15.100,5.750 L15.100,12.000 C15.100,13.382 13.937,14.500 12.500,14.500 C11.063,14.500 9.900,13.382 9.900,12.000 L9.900,5.750 Z"/>
</svg>