<svg 
 xmlns="http://www.w3.org/2000/svg"
 xmlns:xlink="http://www.w3.org/1999/xlink"
 width="62px" height="46px">
<path fill-rule="evenodd"  fill="rgb(242, 242, 242)"
 d="M62.000,31.545 C62.000,39.514 55.559,45.995 47.643,45.995 C39.928,45.995 33.892,39.949 33.289,31.619 C32.261,17.433 39.367,5.853 45.766,0.250 C46.151,-0.088 46.728,-0.082 47.109,0.262 C47.680,0.784 48.070,1.183 48.925,2.060 C49.575,2.725 50.501,3.676 51.998,5.182 C52.343,5.529 52.393,6.075 52.115,6.480 C48.445,11.843 48.345,15.700 48.475,17.118 C56.006,17.555 62.000,23.859 62.000,31.545 ZM49.981,6.030 C48.815,4.853 48.045,4.064 47.481,3.487 C47.014,3.008 46.697,2.684 46.419,2.408 C43.573,5.152 34.149,15.516 35.306,31.471 C35.306,31.472 35.306,31.472 35.306,31.472 C35.831,38.707 41.018,43.959 47.643,43.959 C54.444,43.959 59.977,38.390 59.977,31.545 C59.977,24.700 54.444,19.131 47.643,19.131 C47.267,19.131 46.909,18.905 46.734,18.570 C46.365,17.864 45.525,12.940 49.981,6.030 ZM14.454,45.995 C6.740,45.995 0.702,39.949 0.098,31.620 L0.098,31.619 C-0.929,17.430 6.179,5.852 12.577,0.249 C12.962,-0.087 13.539,-0.082 13.921,0.262 C14.492,0.785 14.883,1.185 15.740,2.064 C16.389,2.729 17.315,3.679 18.809,5.182 C19.153,5.529 19.203,6.075 18.926,6.480 C15.251,11.850 15.154,15.704 15.286,17.118 C22.817,17.553 28.812,23.858 28.812,31.545 C28.812,39.514 22.371,45.995 14.454,45.995 ZM14.454,19.131 C14.079,19.131 13.719,18.904 13.544,18.569 C13.176,17.864 12.335,12.942 16.791,6.030 C15.628,4.855 14.858,4.067 14.296,3.490 C13.828,3.010 13.510,2.684 13.231,2.408 C10.384,5.151 0.961,15.513 2.115,31.472 L2.115,31.471 C2.640,38.707 7.831,43.959 14.454,43.959 C21.256,43.959 26.789,38.390 26.789,31.545 C26.789,24.700 21.256,19.131 14.454,19.131 Z"/>
</svg>