<svg 
 xmlns="http://www.w3.org/2000/svg"
 xmlns:xlink="http://www.w3.org/1999/xlink"
 width="24px" height="24px">
<path fill-rule="evenodd"  fill-opacity="0" fill="#777"
 d="M-0.000,-0.000 L24.000,-0.000 L24.000,24.000 L-0.000,24.000 L-0.000,-0.000 Z"/>
<path fill-rule="evenodd"  fill="#777"
 d="M20.169,21.999 L7.831,21.999 C5.719,21.999 4.000,20.307 4.000,18.229 L4.000,5.770 C4.000,3.691 5.719,2.000 7.831,2.000 L16.186,2.000 C18.313,2.000 20.044,3.703 20.044,5.797 L20.044,8.696 C20.044,8.819 20.143,8.918 20.266,8.918 L23.778,8.918 C23.900,8.918 23.999,9.017 23.999,9.140 L23.999,18.229 C23.999,20.307 22.281,21.999 20.169,21.999 ZM22.827,10.311 C22.827,10.189 22.728,10.090 22.606,10.090 L19.094,10.090 C18.971,10.090 18.872,9.991 18.872,9.868 L18.872,5.797 C18.872,4.350 17.667,3.172 16.186,3.172 L7.831,3.172 C6.365,3.172 5.172,4.337 5.172,5.770 L5.172,18.229 C5.172,19.661 6.365,20.827 7.831,20.827 L20.169,20.827 C21.635,20.827 22.827,19.661 22.827,18.229 L22.827,10.311 ZM18.200,18.232 L9.837,18.232 C8.658,18.232 7.702,17.276 7.702,16.096 L7.702,14.791 C7.702,13.612 8.658,12.656 9.837,12.656 L18.200,12.656 C19.380,12.656 20.336,13.612 20.336,14.791 L20.336,16.096 C20.336,17.276 19.380,18.232 18.200,18.232 ZM19.164,14.791 C19.164,14.259 18.733,13.828 18.200,13.828 L9.837,13.828 C9.305,13.828 8.874,14.259 8.874,14.791 L8.874,16.096 C8.874,16.628 9.305,17.060 9.837,17.060 L18.200,17.060 C18.733,17.060 19.164,16.628 19.164,16.096 L19.164,14.791 ZM14.121,10.090 L9.837,10.090 C8.658,10.090 7.702,9.134 7.702,7.954 L7.702,7.954 C7.702,6.775 8.658,5.819 9.837,5.819 L14.121,5.819 C15.300,5.819 16.256,6.775 16.256,7.954 L16.256,7.954 C16.256,9.134 15.300,10.090 14.121,10.090 ZM15.084,7.954 C15.084,7.422 14.653,6.990 14.121,6.990 L9.837,6.990 C9.305,6.990 8.874,7.422 8.874,7.954 L8.874,7.954 C8.874,8.487 9.305,8.918 9.837,8.918 L14.121,8.918 C14.653,8.918 15.084,8.487 15.084,7.954 L15.084,7.954 Z"/>
</svg>