<svg 
 xmlns="http://www.w3.org/2000/svg"
 xmlns:xlink="http://www.w3.org/1999/xlink"
 width="24px" height="24px">
<path fill-rule="evenodd"  fill-opacity="0" opacity="0" fill="#fff"
 d="M-0.000,-0.000 L24.000,-0.000 L24.000,24.000 L-0.000,24.000 L-0.000,-0.000 Z"/>
<path fill-rule="evenodd"  fill="#fff"
 d="M19.200,16.143 L19.200,21.000 L16.800,21.000 L16.800,16.143 L12.000,16.143 L12.000,13.714 L16.800,13.714 L16.800,8.857 L19.200,8.857 L19.200,13.714 L24.000,13.714 L24.000,16.143 L19.200,16.143 ZM-0.000,8.857 L14.400,8.857 L14.400,11.286 L-0.000,11.286 L-0.000,8.857 ZM-0.000,4.000 L14.400,4.000 L14.400,6.429 L-0.000,6.429 L-0.000,4.000 ZM9.600,16.143 L-0.000,16.143 L-0.000,13.714 L9.600,13.714 L9.600,16.143 Z"/>
</svg>