<svg 
 xmlns="http://www.w3.org/2000/svg"
 xmlns:xlink="http://www.w3.org/1999/xlink"
 width="24px" height="24px">
<path fill-rule="evenodd"  fill-opacity="0" opacity="0" fill="#fff"
 d="M-0.000,-0.000 L24.000,-0.000 L24.000,24.000 L-0.000,24.000 L-0.000,-0.000 Z"/>
<path fill-rule="evenodd"  fill="#fff"
 d="M19.656,22.000 L4.344,22.000 C3.051,22.000 2.000,20.949 2.000,19.656 L2.000,14.227 L3.562,14.227 L3.562,19.656 C3.562,20.087 3.913,20.437 4.344,20.437 L19.656,20.437 C20.087,20.437 20.437,20.087 20.437,19.656 L20.437,14.227 L22.000,14.227 L22.000,19.656 C22.000,20.949 20.949,22.000 19.656,22.000 ZM7.145,12.312 L8.250,11.208 L11.219,14.176 L11.219,2.000 L12.781,2.000 L12.781,14.176 L15.750,11.208 L16.855,12.312 L12.000,17.167 L7.145,12.312 Z"/>
</svg>