<svg 
 xmlns="http://www.w3.org/2000/svg"
 xmlns:xlink="http://www.w3.org/1999/xlink"
 width="864px" height="524px">
<path fill-rule="evenodd"  fill="rgb(25, 30, 53)"
 d="M800.099,524.003 C787.370,524.003 785.210,510.569 779.850,442.028 C779.041,431.719 778.064,419.229 776.950,407.703 C775.835,419.233 774.859,431.725 774.050,442.038 C768.687,510.572 766.527,524.003 753.797,524.003 C741.062,524.003 738.898,510.572 733.527,442.038 C732.715,431.680 731.729,419.125 730.606,407.551 C729.485,419.122 728.499,431.677 727.688,442.028 C722.316,510.569 720.156,524.003 707.417,524.003 C702.612,524.003 698.714,520.114 698.714,515.319 C698.714,512.366 700.191,509.756 702.447,508.190 C705.713,499.662 708.475,464.394 710.335,440.677 C715.707,372.137 717.867,358.703 730.606,358.703 C743.344,358.703 745.508,372.137 750.879,440.683 C751.691,451.011 752.671,463.527 753.791,475.075 C754.909,463.530 755.888,451.011 756.697,440.683 C762.060,372.137 764.220,358.703 776.953,358.703 C789.682,358.703 791.843,372.137 797.202,440.677 C798.278,454.395 799.653,471.981 801.253,486.018 C801.918,481.786 802.529,477.547 803.056,473.873 C807.161,445.353 809.704,427.683 821.685,426.305 C823.695,425.785 828.291,424.945 841.359,423.684 C844.409,423.391 846.716,420.703 846.614,417.564 C839.355,193.153 657.283,17.364 432.112,17.364 C207.332,17.364 22.297,197.045 17.488,418.856 C22.870,418.928 27.379,419.484 30.945,420.521 C42.853,421.974 45.395,439.628 49.489,468.083 C50.017,471.754 50.627,475.992 51.294,480.222 C52.894,466.182 54.270,448.599 55.343,434.878 C60.705,366.341 62.866,352.910 75.594,352.910 C88.325,352.910 90.485,366.343 95.849,434.887 C96.657,445.215 97.638,457.737 98.755,469.285 C99.874,457.737 100.857,445.212 101.666,434.881 C107.039,366.341 109.200,352.910 121.939,352.910 C134.676,352.910 136.840,366.341 142.213,434.881 C144.072,458.598 146.836,493.865 150.099,502.391 C152.357,503.960 153.834,506.570 153.834,509.523 C153.834,514.318 149.938,518.207 145.131,518.207 C132.392,518.207 130.230,504.776 124.857,436.235 C124.047,425.883 123.062,413.326 121.939,401.757 C120.816,413.326 119.831,425.883 119.021,436.235 C113.648,504.776 111.486,518.207 98.748,518.207 C86.018,518.207 83.858,504.776 78.494,436.238 C77.688,425.931 76.710,413.439 75.595,401.913 C74.481,413.439 73.504,425.925 72.698,436.229 C67.335,504.773 65.175,518.207 52.446,518.207 C39.117,518.207 36.536,500.268 32.259,470.549 C30.622,459.172 28.207,442.396 25.722,437.096 C23.052,436.400 18.527,436.092 13.343,436.271 C9.872,436.424 6.418,435.066 3.909,432.624 C1.392,430.173 -0.030,426.762 0.008,423.265 C1.199,309.267 46.687,202.668 128.096,123.108 C209.330,43.717 317.299,-0.004 432.112,-0.004 C545.068,-0.004 651.915,43.203 732.970,121.659 C813.845,199.940 860.383,304.829 864.014,417.002 C864.410,429.276 855.194,439.805 843.034,440.973 C832.536,441.987 828.345,442.656 826.790,442.961 C824.318,448.339 821.919,465.013 820.289,476.342 C816.011,506.064 813.428,524.003 800.099,524.003 ZM707.417,506.635 C707.411,506.635 707.402,506.635 707.396,506.635 C707.402,506.635 707.411,506.635 707.417,506.635 ZM145.131,500.839 C145.138,500.839 145.146,500.839 145.152,500.839 C145.146,500.839 145.138,500.839 145.131,500.839 Z"/>
</svg>