<svg 
 xmlns="http://www.w3.org/2000/svg"
 xmlns:xlink="http://www.w3.org/1999/xlink"
 width="24px" height="24px">
<path fill-rule="evenodd"  fill-opacity="0" opacity="0" fill="#fff"
 d="M-0.000,-0.000 L24.000,-0.000 L24.000,24.000 L-0.000,24.000 L-0.000,-0.000 Z"/>
<path fill-rule="evenodd"  fill="#fff"
 d="M20.614,5.670 C19.677,4.593 18.376,4.000 16.953,4.000 C14.951,4.000 13.684,5.211 12.973,6.227 C12.789,6.490 12.632,6.755 12.500,7.003 C12.368,6.755 12.211,6.490 12.027,6.227 C11.316,5.211 10.049,4.000 8.047,4.000 C6.623,4.000 5.323,4.593 4.386,5.670 C3.492,6.697 3.000,8.073 3.000,9.544 C3.000,11.145 3.617,12.634 4.942,14.231 C6.127,15.657 7.831,17.128 9.804,18.831 C10.539,19.465 11.300,20.122 12.109,20.839 L12.133,20.860 C12.238,20.954 12.369,21.000 12.500,21.000 C12.631,21.000 12.762,20.953 12.867,20.860 L12.891,20.839 C13.700,20.122 14.461,19.465 15.196,18.831 C17.169,17.128 18.873,15.657 20.057,14.231 C21.383,12.634 22.000,11.145 22.000,9.544 C22.000,8.073 21.508,6.697 20.614,5.670 ZM14.474,17.973 C13.840,18.520 13.188,19.083 12.500,19.688 C11.812,19.083 11.160,18.520 10.526,17.973 C6.664,14.640 4.113,12.438 4.113,9.544 C4.113,8.348 4.507,7.237 5.221,6.415 C5.944,5.585 6.948,5.127 8.047,5.127 C9.573,5.127 10.560,6.080 11.119,6.879 C11.620,7.595 11.881,8.317 11.971,8.595 C12.045,8.827 12.259,8.984 12.500,8.984 C12.741,8.984 12.955,8.827 13.029,8.595 C13.118,8.317 13.380,7.595 13.881,6.879 C14.440,6.080 15.427,5.127 16.953,5.127 C18.052,5.127 19.056,5.585 19.778,6.415 C20.493,7.237 20.887,8.348 20.887,9.544 C20.887,12.438 18.336,14.640 14.474,17.973 Z"/>
</svg>