<svg 
 xmlns="http://www.w3.org/2000/svg"
 xmlns:xlink="http://www.w3.org/1999/xlink"
 width="24px" height="24px">
<path fill-rule="evenodd"  fill-opacity="0" opacity="0" fill="rgb(119, 119, 119)"
 d="M-0.000,-0.000 L24.000,-0.000 L24.000,24.000 L-0.000,24.000 L-0.000,-0.000 Z"/>
<path fill-rule="evenodd"  fill="rgb(119, 119, 119)"
 d="M21.343,4.572 C21.120,4.435 20.831,4.421 20.595,4.545 L15.487,7.172 C15.079,7.227 14.777,7.585 14.791,8.011 L15.040,16.071 C14.593,15.879 14.095,15.769 13.543,15.769 C13.044,15.769 12.545,15.851 12.059,16.016 C10.037,16.690 8.829,18.479 9.314,20.088 C9.669,21.243 10.838,22.000 12.309,22.000 C12.808,22.000 13.306,21.917 13.792,21.752 C15.618,21.147 16.773,19.648 16.642,18.190 C16.668,18.107 16.681,18.011 16.681,17.901 L16.537,13.087 L21.514,10.776 C21.816,10.638 22.000,10.322 21.987,9.978 L21.751,5.246 C21.724,4.957 21.580,4.710 21.343,4.572 ZM13.320,20.171 C12.978,20.281 12.637,20.336 12.309,20.336 C11.547,20.336 10.943,20.033 10.812,19.579 C10.628,18.974 11.284,17.997 12.532,17.585 C12.873,17.475 13.215,17.420 13.543,17.420 C14.305,17.420 14.909,17.722 15.040,18.176 C15.224,18.795 14.567,19.758 13.320,20.171 ZM16.471,11.298 L16.393,8.547 L20.227,6.580 L20.372,9.497 L16.471,11.298 ZM15.789,3.651 L2.788,3.651 C2.354,3.651 2.000,3.279 2.000,2.825 C2.000,2.371 2.354,2.000 2.788,2.000 L15.789,2.000 C16.222,2.000 16.577,2.371 16.577,2.825 C16.577,3.279 16.222,3.651 15.789,3.651 ZM11.980,7.640 C11.980,8.094 11.626,8.465 11.192,8.465 L2.788,8.465 C2.354,8.465 2.000,8.093 2.000,7.640 C2.000,7.186 2.354,6.814 2.788,6.814 L11.192,6.814 C11.626,6.814 11.980,7.186 11.980,7.640 ZM11.980,12.316 C11.980,12.770 11.626,13.142 11.192,13.142 L2.788,13.142 C2.354,13.142 2.000,12.770 2.000,12.316 C2.000,11.862 2.354,11.491 2.788,11.491 L11.192,11.491 C11.626,11.491 11.980,11.862 11.980,12.316 Z"/>
</svg>