<svg 
 xmlns="http://www.w3.org/2000/svg"
 xmlns:xlink="http://www.w3.org/1999/xlink"
 width="24px" height="24px">
<path fill-rule="evenodd"  fill-opacity="0" opacity="0" fill="rgb(119, 119, 119)"
 d="M-0.000,-0.000 L24.000,-0.000 L24.000,24.000 L-0.000,24.000 L-0.000,-0.000 Z"/>
<path fill-rule="evenodd"  fill="rgb(119, 119, 119)"
 d="M22.004,12.095 C22.004,9.400 20.964,6.864 19.076,4.959 C17.188,3.054 14.675,2.004 12.004,2.004 C9.333,2.004 6.820,3.054 4.932,4.959 C3.044,6.864 2.004,9.400 2.004,12.095 L2.004,16.873 C2.004,19.572 4.183,21.771 6.859,21.771 C7.179,21.771 7.436,21.512 7.436,21.188 L7.436,12.562 C7.436,12.238 7.179,11.978 6.859,11.978 C5.377,11.978 4.050,12.648 3.160,13.706 L3.160,12.095 C3.160,7.175 7.128,3.171 12.004,3.171 C16.880,3.171 20.848,7.175 20.848,12.095 C20.848,12.134 20.852,12.173 20.861,12.212 C20.852,12.250 20.848,12.289 20.848,12.328 L20.848,13.939 C19.958,12.881 18.631,12.212 17.150,12.212 C16.829,12.212 16.572,12.471 16.572,12.795 L16.572,21.421 C16.572,21.745 16.829,22.004 17.150,22.004 C19.825,22.004 22.004,19.806 22.004,17.106 L22.004,12.328 C22.004,12.289 22.000,12.250 21.991,12.212 C22.000,12.173 22.004,12.134 22.004,12.095 ZM6.276,13.188 L6.276,20.557 C4.512,20.276 3.155,18.730 3.155,16.873 C3.160,15.015 4.512,13.469 6.276,13.188 ZM17.732,20.790 L17.732,13.421 C19.495,13.702 20.852,15.248 20.852,17.106 C20.848,18.968 19.495,20.510 17.732,20.790 Z"/>
</svg>