<svg 
 xmlns="http://www.w3.org/2000/svg"
 xmlns:xlink="http://www.w3.org/1999/xlink"
 width="24px" height="24px">
<path fill-rule="evenodd"  fill-opacity="0" opacity="0" fill="rgb(119, 119, 119)"
 d="M-0.000,-0.000 L24.000,-0.000 L24.000,24.000 L-0.000,24.000 L-0.000,-0.000 Z"/>
<path fill-rule="evenodd"  fill="rgb(119, 119, 119)"
 d="M21.375,22.000 L2.625,22.000 C2.280,22.000 2.000,21.720 2.000,21.375 L2.000,7.625 C2.000,7.280 2.280,7.000 2.625,7.000 L4.500,7.000 L4.500,5.125 C4.500,4.780 4.780,4.500 5.125,4.500 L7.000,4.500 L7.000,2.625 C7.000,2.280 7.280,2.000 7.625,2.000 L16.375,2.000 C16.720,2.000 17.000,2.280 17.000,2.625 L17.000,4.500 L18.875,4.500 C19.220,4.500 19.500,4.780 19.500,5.125 L19.500,7.000 L21.375,7.000 C21.720,7.000 22.000,7.280 22.000,7.625 L22.000,21.375 C22.000,21.720 21.720,22.000 21.375,22.000 ZM15.750,3.250 L8.250,3.250 L8.250,4.500 L15.750,4.500 L15.750,3.250 ZM18.250,5.750 L5.750,5.750 L5.750,7.000 L18.250,7.000 L18.250,5.750 ZM20.750,8.250 L3.250,8.250 L3.250,20.750 L20.750,20.750 L20.750,8.250 ZM10.750,15.750 C11.211,15.750 11.632,15.846 12.000,16.002 L12.000,10.125 C12.000,10.104 12.010,10.086 12.012,10.066 C12.014,10.047 12.007,10.030 12.011,10.010 C12.015,9.987 12.029,9.971 12.035,9.950 C12.049,9.907 12.064,9.867 12.085,9.829 C12.102,9.796 12.122,9.767 12.145,9.739 C12.174,9.704 12.204,9.674 12.239,9.645 C12.265,9.624 12.292,9.605 12.324,9.589 C12.362,9.566 12.401,9.550 12.444,9.536 C12.481,9.525 12.517,9.519 12.556,9.514 C12.580,9.511 12.601,9.500 12.625,9.500 C12.646,9.500 12.664,9.510 12.684,9.511 C12.702,9.512 12.721,9.506 12.740,9.510 C13.781,9.705 15.750,10.591 15.750,12.546 C15.750,12.891 15.470,13.171 15.125,13.171 C14.780,13.171 14.500,12.891 14.500,12.546 C14.500,11.710 13.816,11.239 13.250,10.987 L13.250,17.625 C13.250,18.676 12.151,19.500 10.750,19.500 C9.349,19.500 8.250,18.676 8.250,17.625 C8.250,16.574 9.349,15.750 10.750,15.750 ZM10.750,18.250 C11.502,18.250 12.000,17.874 12.000,17.625 C12.000,17.376 11.502,17.000 10.750,17.000 C9.997,17.000 9.500,17.376 9.500,17.625 C9.500,17.874 9.997,18.250 10.750,18.250 Z"/>
</svg>