<svg 
 xmlns="http://www.w3.org/2000/svg"
 xmlns:xlink="http://www.w3.org/1999/xlink"
 width="24px" height="24px">
<path fill-rule="evenodd"  fill-opacity="0" opacity="0" fill="rgb(119, 119, 119)"
 d="M-0.000,-0.000 L24.000,-0.000 L24.000,24.000 L-0.000,24.000 L-0.000,-0.000 Z"/>
<path fill-rule="evenodd"  fill="rgb(119, 119, 119)"
 d="M13.974,12.734 L16.471,14.733 L15.638,15.918 L12.587,13.475 L12.587,5.331 L13.974,5.331 L13.974,12.734 ZM21.724,17.007 C19.131,21.782 13.402,23.408 8.928,20.640 L9.625,19.360 C10.406,19.843 11.257,20.180 12.144,20.359 C16.468,21.229 20.634,18.192 21.449,13.577 C22.264,8.961 19.419,4.514 15.095,3.644 C10.771,2.774 6.605,5.810 5.790,10.426 L7.935,8.139 L8.916,9.186 L4.958,13.411 L1.000,9.186 L1.981,8.139 L4.356,10.675 C4.977,5.714 8.939,2.008 13.627,2.000 C15.276,2.000 16.895,2.466 18.321,3.348 C22.794,6.117 24.318,12.232 21.724,17.007 ZM6.891,16.554 L5.721,17.348 C5.452,16.898 5.218,16.426 5.021,15.935 L6.296,15.351 C6.464,15.769 6.663,16.171 6.891,16.554 ZM8.578,18.583 L7.699,19.730 C7.314,19.392 6.954,19.023 6.622,18.625 L7.663,17.642 C7.944,17.981 8.250,18.295 8.578,18.583 Z"/>
</svg>