<svg 
 xmlns="http://www.w3.org/2000/svg"
 xmlns:xlink="http://www.w3.org/1999/xlink"
 width="20px" height="20px">
<path fill-rule="evenodd"  fill="rgb(205, 205, 205)"
 d="M16.169,19.999 L3.831,19.999 C1.719,19.999 0.000,18.308 0.000,16.229 L0.000,3.770 C0.000,1.691 1.719,-0.000 3.831,-0.000 L12.186,-0.000 C14.313,-0.000 16.044,1.703 16.044,3.797 L16.044,6.696 C16.044,6.819 16.143,6.918 16.266,6.918 L19.778,6.918 C19.900,6.918 19.999,7.017 19.999,7.140 L19.999,16.229 C19.999,18.308 18.281,19.999 16.169,19.999 ZM18.827,8.311 C18.827,8.189 18.728,8.090 18.606,8.090 L15.094,8.090 C14.971,8.090 14.872,7.991 14.872,7.868 L14.872,3.797 C14.872,2.350 13.667,1.172 12.186,1.172 L3.831,1.172 C2.365,1.172 1.172,2.337 1.172,3.770 L1.172,16.229 C1.172,17.661 2.365,18.827 3.831,18.827 L16.169,18.827 C17.635,18.827 18.827,17.661 18.827,16.229 L18.827,8.311 ZM14.201,16.232 L5.837,16.232 C4.658,16.232 3.702,15.276 3.702,14.096 L3.702,12.791 C3.702,11.612 4.658,10.656 5.837,10.656 L14.201,10.656 C15.380,10.656 16.336,11.612 16.336,12.791 L16.336,14.096 C16.336,15.276 15.380,16.232 14.201,16.232 ZM15.164,12.791 C15.164,12.259 14.733,11.828 14.201,11.828 L5.837,11.828 C5.305,11.828 4.874,12.259 4.874,12.791 L4.874,14.096 C4.874,14.628 5.305,15.060 5.837,15.060 L14.201,15.060 C14.733,15.060 15.164,14.628 15.164,14.096 L15.164,12.791 ZM10.121,8.090 L5.837,8.090 C4.658,8.090 3.702,7.134 3.702,5.954 L3.702,5.954 C3.702,4.775 4.658,3.819 5.837,3.819 L10.121,3.819 C11.300,3.819 12.256,4.775 12.256,5.954 L12.256,5.954 C12.256,7.134 11.300,8.090 10.121,8.090 ZM11.084,5.954 C11.084,5.422 10.653,4.990 10.121,4.990 L5.837,4.990 C5.305,4.990 4.874,5.422 4.874,5.954 L4.874,5.954 C4.874,6.487 5.305,6.918 5.837,6.918 L10.121,6.918 C10.653,6.918 11.084,6.487 11.084,5.954 L11.084,5.954 Z"/>
</svg>