<svg 
 xmlns="http://www.w3.org/2000/svg"
 xmlns:xlink="http://www.w3.org/1999/xlink"
 width="24px" height="24px">
<path fill-rule="evenodd"  fill-opacity="0" fill="#777777"
 d="M-0.000,-0.000 L24.000,-0.000 L24.000,24.000 L-0.000,24.000 L-0.000,-0.000 Z"/>
<path fill-rule="evenodd"  fill="#777777"
 d="M22.936,6.514 L22.936,16.602 C22.936,18.064 21.716,19.234 20.192,19.234 C18.667,19.234 17.448,18.064 17.448,16.602 C17.448,15.140 18.667,13.970 20.192,13.970 C20.649,13.970 21.107,14.117 21.564,14.263 L21.564,10.169 L13.942,11.777 L13.942,17.918 C13.942,19.380 12.722,20.550 11.198,20.550 C9.673,20.550 8.454,19.380 8.454,17.918 C8.454,16.456 9.673,15.286 11.198,15.286 C11.655,15.286 12.112,15.432 12.570,15.579 L12.570,8.269 C12.570,7.976 12.875,7.684 13.179,7.684 L22.174,5.783 C22.479,5.783 22.631,5.783 22.783,5.929 C22.936,6.076 23.088,6.222 22.936,6.514 ZM11.350,16.602 C10.588,16.602 9.978,17.187 9.978,17.918 C9.978,18.649 10.588,19.234 11.350,19.234 C12.112,19.234 12.722,18.649 12.722,17.918 C12.722,17.333 12.112,16.602 11.350,16.602 ZM21.716,7.245 L14.094,8.853 L14.094,10.315 L21.716,8.707 L21.716,7.245 ZM20.344,15.140 C19.582,15.140 18.972,15.725 18.972,16.456 C18.972,17.187 19.582,17.772 20.344,17.772 C21.107,17.772 21.716,17.187 21.716,16.456 C21.716,15.871 21.107,15.286 20.344,15.140 ZM3.949,12.503 C3.949,12.137 4.259,11.839 4.641,11.839 C5.022,11.839 5.332,12.137 5.332,12.503 C5.332,14.243 6.410,15.737 7.952,16.433 C7.750,16.836 7.631,17.280 7.607,17.750 C5.462,16.895 3.949,14.866 3.949,12.503 ZM9.873,14.502 C8.723,14.502 7.788,13.605 7.788,12.503 C7.788,11.401 8.723,10.504 9.873,10.504 C10.669,10.504 11.354,10.939 11.705,11.571 L11.705,13.435 C11.354,14.066 10.669,14.502 9.873,14.502 ZM9.873,11.839 C9.491,11.839 9.181,12.137 9.181,12.503 C9.181,12.869 9.491,13.166 9.873,13.166 C10.254,13.166 10.564,12.869 10.564,12.503 C10.564,12.137 10.254,11.839 9.873,11.839 ZM9.873,8.148 C9.491,8.148 9.181,7.851 9.181,7.485 C9.181,7.119 9.491,6.822 9.873,6.822 C10.686,6.822 11.462,6.980 12.168,7.266 C11.888,7.527 11.705,7.884 11.705,8.269 L11.705,8.526 C11.143,8.287 10.526,8.148 9.873,8.148 ZM9.873,5.455 C5.820,5.455 2.524,8.616 2.524,12.503 C2.524,15.727 4.796,18.446 7.883,19.281 C8.217,20.024 8.820,20.620 9.566,20.987 C4.822,20.830 1.011,17.090 1.011,12.503 C1.011,7.816 4.986,4.004 9.873,4.004 C12.190,4.004 14.297,4.868 15.877,6.270 L13.987,6.666 C12.812,5.902 11.396,5.455 9.873,5.455 Z"/>
</svg>