<svg 
 xmlns="http://www.w3.org/2000/svg"
 xmlns:xlink="http://www.w3.org/1999/xlink"
 width="24px" height="24px">
<path fill-rule="evenodd"  fill-opacity="0" opacity="0" fill="#fff"
 d="M-0.000,-0.000 L24.000,-0.000 L24.000,24.000 L-0.000,24.000 L-0.000,-0.000 Z"/>
<path fill-rule="evenodd"  fill="#fff"
 d="M19.663,7.237 C19.612,6.892 19.320,6.651 18.976,6.651 L15.024,6.651 L15.024,5.032 C15.024,3.361 13.667,2.000 12.000,2.000 C10.333,2.000 8.976,3.361 8.976,5.032 L8.976,6.651 L5.024,6.651 C4.680,6.651 4.388,6.892 4.337,7.237 L2.034,21.190 C2.000,21.397 2.051,21.604 2.189,21.759 C2.326,21.914 2.515,22.000 2.722,22.000 L21.278,22.000 C21.278,22.000 21.278,22.000 21.296,22.000 C21.691,22.000 22.000,21.690 22.000,21.294 C22.000,21.208 21.983,21.139 21.966,21.070 L19.663,7.237 ZM10.385,5.032 C10.385,4.136 11.106,3.413 12.000,3.413 C12.893,3.413 13.615,4.136 13.615,5.032 L13.615,6.651 L10.385,6.651 L10.385,5.032 ZM3.546,20.605 L5.625,8.064 L8.976,8.064 L8.976,12.009 C8.976,12.405 9.285,12.715 9.680,12.715 C10.075,12.715 10.385,12.405 10.385,12.009 L10.385,8.064 L13.615,8.064 L13.615,12.009 C13.615,12.405 13.924,12.715 14.320,12.715 C14.715,12.715 15.024,12.405 15.024,12.009 L15.024,8.064 L18.375,8.064 L20.454,20.605 L3.546,20.605 Z"/>
</svg>