<svg 
 xmlns="http://www.w3.org/2000/svg"
 xmlns:xlink="http://www.w3.org/1999/xlink"
 width="24px" height="24px">
<path fill-rule="evenodd"  fill-opacity="0" opacity="0" fill="rgb(119, 119, 119)"
 d="M-0.000,-0.000 L24.000,-0.000 L24.000,24.000 L-0.000,24.000 L-0.000,-0.000 Z"/>
<path fill-rule="evenodd"  fill="rgb(119, 119, 119)"
 d="M18.847,19.579 C18.569,19.803 18.163,19.757 17.941,19.475 C17.719,19.193 17.765,18.783 18.044,18.558 C20.374,16.679 21.711,13.872 21.711,10.858 C21.711,7.844 20.374,5.038 18.044,3.158 C17.765,2.933 17.719,2.523 17.941,2.241 C18.163,1.959 18.569,1.913 18.847,2.138 C21.486,4.266 23.000,7.445 23.000,10.858 C23.000,14.272 21.486,17.450 18.847,19.579 ZM16.698,16.857 C16.420,17.081 16.014,17.035 15.792,16.752 C15.571,16.470 15.617,16.060 15.896,15.836 C17.407,14.619 18.273,12.805 18.273,10.858 C18.273,8.911 17.407,7.097 15.896,5.881 C15.617,5.656 15.571,5.246 15.792,4.964 C16.014,4.682 16.420,4.635 16.698,4.860 C18.518,6.325 19.562,8.511 19.562,10.858 C19.562,13.205 18.518,15.391 16.698,16.857 ZM12.644,14.063 L12.644,21.348 C12.644,21.708 12.356,22.000 12.000,22.000 C11.644,22.000 11.355,21.708 11.355,21.348 L11.355,14.063 C9.886,13.760 8.777,12.442 8.777,10.867 C8.777,9.068 10.223,7.605 12.000,7.605 C13.777,7.605 15.223,9.068 15.223,10.867 C15.223,12.442 14.114,13.760 12.644,14.063 ZM12.000,8.910 C10.934,8.910 10.066,9.788 10.066,10.867 C10.066,11.946 10.934,12.824 12.000,12.824 C13.066,12.824 13.934,11.946 13.934,10.867 C13.934,9.788 13.066,8.910 12.000,8.910 ZM8.207,16.752 C7.986,17.034 7.580,17.081 7.302,16.857 C5.481,15.391 4.437,13.205 4.437,10.858 C4.437,8.511 5.481,6.325 7.302,4.859 C7.580,4.635 7.986,4.682 8.207,4.964 C8.429,5.246 8.383,5.656 8.104,5.881 C6.593,7.097 5.727,8.911 5.727,10.858 C5.727,12.805 6.593,14.619 8.104,15.836 C8.383,16.060 8.429,16.470 8.207,16.752 ZM2.289,10.858 C2.289,13.872 3.626,16.679 5.956,18.559 C6.235,18.783 6.281,19.194 6.059,19.475 C5.837,19.757 5.431,19.803 5.153,19.579 C2.514,17.450 1.000,14.272 1.000,10.858 C1.000,7.445 2.514,4.266 5.153,2.138 C5.431,1.913 5.837,1.959 6.059,2.241 C6.281,2.523 6.235,2.933 5.956,3.158 C3.626,5.037 2.289,7.844 2.289,10.858 Z"/>
</svg>