<svg 
 xmlns="http://www.w3.org/2000/svg"
 xmlns:xlink="http://www.w3.org/1999/xlink"
 width="24px" height="24px">
<path fill-rule="evenodd"  fill-opacity="0" opacity="0" fill="rgb(119, 119, 119)"
 d="M-0.000,-0.000 L24.000,-0.000 L24.000,24.000 L-0.000,24.000 L-0.000,-0.000 Z"/>
<path fill-rule="evenodd"  fill="rgb(119, 119, 119)"
 d="M23.999,7.920 C23.999,7.929 23.999,7.939 23.998,7.948 C23.997,7.954 23.997,7.960 23.996,7.966 C23.995,7.974 23.994,7.982 23.992,7.990 C23.991,7.997 23.990,8.003 23.988,8.009 C23.987,8.017 23.985,8.024 23.983,8.031 C23.981,8.038 23.979,8.044 23.977,8.050 C23.975,8.058 23.972,8.065 23.970,8.072 C23.967,8.078 23.965,8.084 23.963,8.090 C23.959,8.097 23.956,8.104 23.952,8.111 C23.950,8.117 23.947,8.122 23.944,8.128 C23.940,8.135 23.935,8.143 23.931,8.150 C23.928,8.155 23.925,8.159 23.922,8.164 C23.915,8.175 23.907,8.186 23.898,8.197 L23.897,8.198 C23.897,8.198 23.897,8.198 23.897,8.198 L12.847,21.834 C12.846,21.835 12.845,21.836 12.844,21.837 C12.835,21.849 12.825,21.860 12.814,21.870 C12.813,21.872 12.811,21.873 12.810,21.874 C12.801,21.883 12.791,21.892 12.781,21.900 C12.777,21.902 12.774,21.905 12.771,21.908 C12.760,21.916 12.749,21.923 12.738,21.931 C12.737,21.931 12.736,21.932 12.735,21.933 C12.722,21.941 12.709,21.948 12.696,21.954 C12.693,21.956 12.689,21.957 12.686,21.959 C12.675,21.964 12.664,21.969 12.652,21.973 C12.649,21.974 12.647,21.975 12.644,21.976 C12.630,21.981 12.616,21.985 12.601,21.988 C12.598,21.989 12.596,21.989 12.593,21.990 C12.581,21.992 12.569,21.994 12.557,21.996 C12.553,21.996 12.549,21.997 12.545,21.997 C12.530,21.999 12.515,22.000 12.500,22.000 C12.485,22.000 12.470,21.999 12.455,21.997 C12.451,21.997 12.447,21.996 12.443,21.996 C12.431,21.994 12.419,21.992 12.407,21.990 C12.404,21.989 12.401,21.989 12.398,21.988 C12.384,21.985 12.370,21.981 12.356,21.976 C12.353,21.975 12.350,21.974 12.347,21.973 C12.336,21.969 12.325,21.964 12.314,21.959 C12.310,21.957 12.307,21.956 12.304,21.954 C12.290,21.948 12.277,21.941 12.265,21.933 C12.264,21.932 12.263,21.931 12.262,21.931 C12.250,21.923 12.239,21.916 12.229,21.908 C12.225,21.905 12.222,21.902 12.219,21.900 C12.209,21.892 12.199,21.883 12.190,21.874 C12.188,21.873 12.187,21.872 12.186,21.870 C12.175,21.860 12.165,21.849 12.155,21.837 C12.154,21.836 12.153,21.835 12.152,21.834 L1.103,8.198 C1.103,8.198 1.102,8.198 1.102,8.198 L1.102,8.197 C1.093,8.186 1.085,8.175 1.077,8.164 C1.074,8.159 1.072,8.155 1.069,8.150 C1.064,8.143 1.059,8.135 1.055,8.128 C1.052,8.122 1.050,8.117 1.047,8.111 C1.044,8.104 1.040,8.097 1.037,8.090 C1.035,8.084 1.032,8.078 1.030,8.072 C1.027,8.064 1.025,8.057 1.022,8.050 C1.020,8.044 1.019,8.038 1.017,8.031 C1.015,8.024 1.013,8.017 1.011,8.009 C1.010,8.003 1.009,7.997 1.007,7.990 C1.006,7.982 1.005,7.974 1.004,7.966 C1.003,7.960 1.002,7.954 1.002,7.948 C1.001,7.939 1.001,7.930 1.000,7.920 C1.000,7.916 1.000,7.913 1.000,7.909 C1.000,7.908 1.000,7.907 1.000,7.905 C1.000,7.893 1.001,7.881 1.002,7.869 C1.002,7.867 1.002,7.864 1.002,7.862 C1.004,7.848 1.006,7.834 1.009,7.821 C1.010,7.815 1.011,7.809 1.013,7.803 C1.015,7.795 1.016,7.787 1.019,7.780 C1.021,7.773 1.023,7.767 1.025,7.761 C1.027,7.754 1.030,7.747 1.032,7.740 C1.035,7.733 1.038,7.727 1.040,7.721 C1.043,7.715 1.047,7.708 1.050,7.701 C1.053,7.695 1.056,7.689 1.059,7.684 C1.063,7.677 1.067,7.671 1.071,7.664 C1.074,7.659 1.078,7.653 1.082,7.648 C1.086,7.642 1.090,7.636 1.095,7.630 C1.099,7.625 1.103,7.619 1.107,7.614 C1.109,7.612 1.111,7.610 1.112,7.608 L5.874,2.153 C5.875,2.152 5.877,2.151 5.878,2.150 C5.885,2.142 5.893,2.134 5.901,2.126 C5.904,2.123 5.907,2.120 5.910,2.117 C5.919,2.109 5.929,2.100 5.940,2.092 C5.942,2.091 5.943,2.089 5.945,2.088 C5.958,2.079 5.970,2.070 5.984,2.062 C5.984,2.062 5.984,2.062 5.984,2.062 C6.010,2.047 6.039,2.033 6.069,2.023 C6.069,2.023 6.069,2.023 6.069,2.023 C6.074,2.022 6.079,2.020 6.084,2.019 C6.094,2.016 6.104,2.013 6.115,2.011 C6.119,2.010 6.123,2.009 6.127,2.008 C6.138,2.006 6.150,2.004 6.161,2.003 C6.165,2.002 6.169,2.002 6.173,2.002 C6.184,2.001 6.196,2.000 6.208,2.000 C6.209,2.000 6.210,2.000 6.211,2.000 L18.789,2.000 C18.790,2.000 18.791,2.000 18.792,2.000 C18.804,2.000 18.816,2.001 18.828,2.002 C18.831,2.002 18.835,2.002 18.839,2.003 C18.850,2.004 18.862,2.006 18.874,2.009 C18.878,2.009 18.881,2.010 18.885,2.010 C18.896,2.013 18.906,2.016 18.917,2.019 C18.921,2.021 18.926,2.022 18.930,2.023 C18.931,2.023 18.931,2.023 18.931,2.023 C18.961,2.033 18.989,2.046 19.016,2.062 C19.016,2.062 19.016,2.062 19.016,2.062 C19.029,2.070 19.042,2.079 19.054,2.088 C19.056,2.089 19.058,2.091 19.060,2.092 C19.071,2.100 19.080,2.108 19.090,2.117 C19.093,2.120 19.096,2.123 19.099,2.126 C19.107,2.134 19.115,2.142 19.122,2.150 C19.123,2.151 19.125,2.152 19.126,2.153 L23.887,7.608 C23.889,7.610 23.891,7.612 23.893,7.614 C23.897,7.619 23.901,7.624 23.905,7.630 C23.909,7.636 23.914,7.642 23.918,7.648 C23.922,7.653 23.925,7.659 23.929,7.664 C23.933,7.671 23.937,7.677 23.941,7.684 C23.944,7.689 23.947,7.695 23.950,7.701 C23.953,7.708 23.956,7.714 23.960,7.721 C23.962,7.727 23.965,7.733 23.967,7.740 C23.970,7.747 23.973,7.754 23.975,7.761 C23.977,7.767 23.979,7.773 23.981,7.780 C23.983,7.787 23.985,7.795 23.987,7.803 C23.989,7.809 23.990,7.814 23.991,7.820 C23.994,7.834 23.996,7.848 23.997,7.862 C23.998,7.864 23.998,7.867 23.998,7.869 C23.999,7.881 24.000,7.893 24.000,7.905 C24.000,7.907 24.000,7.908 24.000,7.909 C24.000,7.913 23.999,7.916 23.999,7.920 ZM11.304,19.353 L7.684,8.364 L2.398,8.364 L11.304,19.353 ZM6.031,3.347 L2.445,7.454 L7.384,7.454 L6.031,3.347 ZM6.834,2.909 L8.179,6.991 L11.541,2.909 L6.834,2.909 ZM8.967,7.454 L10.703,7.454 C10.951,7.454 11.152,7.658 11.152,7.909 C11.152,8.160 10.951,8.364 10.703,8.364 L8.631,8.364 L12.500,20.108 L16.369,8.364 L14.255,8.364 C14.006,8.364 13.805,8.160 13.805,7.909 C13.805,7.658 14.006,7.454 14.255,7.454 L16.033,7.454 L12.500,3.164 L8.967,7.454 ZM13.459,2.909 L16.821,6.991 L18.166,2.909 L13.459,2.909 ZM18.968,3.347 L17.615,7.454 L22.554,7.454 L18.968,3.347 ZM17.316,8.364 L13.696,19.353 L22.601,8.364 L17.316,8.364 ZM12.500,8.364 C12.252,8.364 12.051,8.160 12.051,7.909 C12.051,7.658 12.252,7.454 12.500,7.454 C12.748,7.454 12.949,7.658 12.949,7.909 C12.949,8.160 12.748,8.364 12.500,8.364 Z"/>
</svg>