<svg 
 xmlns="http://www.w3.org/2000/svg"
 xmlns:xlink="http://www.w3.org/1999/xlink"
 width="15px" height="15px">
<path fill-rule="evenodd"  fill="rgb(255, 255, 255)"
 d="M13.242,15.000 L1.758,15.000 C0.788,15.000 -0.000,14.211 -0.000,13.242 L-0.000,9.170 L1.172,9.170 L1.172,13.242 C1.172,13.565 1.435,13.828 1.758,13.828 L13.242,13.828 C13.565,13.828 13.828,13.565 13.828,13.242 L13.828,9.170 L15.000,9.170 L15.000,13.242 C15.000,14.211 14.211,15.000 13.242,15.000 ZM3.859,7.734 L4.687,6.906 L6.914,9.132 L6.914,-0.000 L8.086,-0.000 L8.086,9.132 L10.312,6.906 L11.141,7.734 L7.500,11.375 L3.859,7.734 Z"/>
</svg>