<svg 
 xmlns="http://www.w3.org/2000/svg"
 xmlns:xlink="http://www.w3.org/1999/xlink"
 width="17px" height="15px">
<path fill-rule="evenodd"  fill="rgb(255, 255, 255)"
 d="M15.759,1.473 C14.921,0.523 13.758,-0.000 12.484,-0.000 C10.693,-0.000 9.559,1.068 8.923,1.965 C8.758,2.197 8.618,2.431 8.500,2.650 C8.382,2.431 8.242,2.197 8.077,1.965 C7.441,1.068 6.307,-0.000 4.515,-0.000 C3.242,-0.000 2.079,0.523 1.240,1.473 C0.440,2.380 -0.000,3.594 -0.000,4.892 C-0.000,6.305 0.552,7.619 1.738,9.027 C2.798,10.286 4.322,11.583 6.088,13.086 C6.746,13.646 7.426,14.225 8.150,14.858 L8.172,14.877 C8.266,14.959 8.383,15.000 8.500,15.000 C8.617,15.000 8.734,14.959 8.828,14.877 L8.850,14.858 C9.574,14.225 10.254,13.646 10.912,13.086 C12.677,11.583 14.202,10.286 15.262,9.027 C16.448,7.619 17.000,6.305 17.000,4.892 C17.000,3.594 16.559,2.380 15.759,1.473 ZM10.266,12.329 C9.699,12.811 9.115,13.308 8.500,13.842 C7.884,13.308 7.301,12.811 6.734,12.329 C3.279,9.388 0.996,7.445 0.996,4.892 C0.996,3.836 1.348,2.856 1.987,2.131 C2.634,1.398 3.532,0.995 4.515,0.995 C5.881,0.995 6.764,1.835 7.264,2.540 C7.712,3.172 7.946,3.809 8.026,4.054 C8.093,4.259 8.284,4.397 8.500,4.397 C8.716,4.397 8.907,4.259 8.973,4.054 C9.053,3.809 9.287,3.172 9.736,2.540 C10.236,1.835 11.119,0.995 12.484,0.995 C13.468,0.995 14.365,1.398 15.012,2.131 C15.652,2.856 16.004,3.836 16.004,4.892 C16.004,7.445 13.721,9.388 10.266,12.329 Z"/>
</svg>